<svg width="40" height="40" viewBox="0 0 40 40" fill="none" xmlns="http://www.w3.org/2000/svg">
<rect x="0.5" y="0.5" width="39" height="39" rx="3.5" fill="#FFC900"/>
<g clip-path="url(#clip0_1702_1822)">
<path d="M28 27.9999C28 28.2651 27.8946 28.5195 27.7071 28.707C27.5196 28.8946 27.2652 28.9999 27 28.9999H13C12.7348 28.9999 12.4804 28.8946 12.2929 28.707C12.1054 28.5195 12 28.2651 12 27.9999V18.9999H9L19.327 9.61192C19.5111 9.4444 19.7511 9.35156 20 9.35156C20.2489 9.35156 20.4889 9.4444 20.673 9.61192L31 18.9999H28V27.9999ZM15.5 20.9999C15.5 22.1934 15.9741 23.338 16.818 24.1819C17.6619 25.0258 18.8065 25.4999 20 25.4999C21.1935 25.4999 22.3381 25.0258 23.182 24.1819C24.0259 23.338 24.5 22.1934 24.5 20.9999H22.5C22.5 21.663 22.2366 22.2988 21.7678 22.7677C21.2989 23.2365 20.663 23.4999 20 23.4999C19.337 23.4999 18.7011 23.2365 18.2322 22.7677C17.7634 22.2988 17.5 21.663 17.5 20.9999H15.5Z" fill="black"/>
</g>
<rect x="0.5" y="0.5" width="39" height="39" rx="3.5" stroke="black"/>
<defs>
<clipPath id="clip0_1702_1822">
<rect width="24" height="24" fill="white" transform="translate(8 8)"/>
</clipPath>
</defs>
</svg>
