My<svg width="73" height="66" viewBox="0 0 73 66" fill="none" xmlns="http://www.w3.org/2000/svg">
<g filter="url(#filter0_dddd_1641_1654)">
<g clip-path="url(#clip0_1641_1654)">
<path d="M44.5 30H28.5V28C28.5 26.6739 29.0268 25.4021 29.9645 24.4645C30.9021 23.5268 32.1739 23 33.5 23H39.5C40.8261 23 42.0979 23.5268 43.0355 24.4645C43.9732 25.4021 44.5 26.6739 44.5 28V30ZM36.5 21C35.7121 21 34.9319 20.8448 34.2039 20.5433C33.4759 20.2417 32.8145 19.7998 32.2574 19.2426C31.7002 18.6855 31.2583 18.0241 30.9567 17.2961C30.6552 16.5681 30.5 15.7879 30.5 15C30.5 14.2121 30.6552 13.4319 30.9567 12.7039C31.2583 11.9759 31.7002 11.3145 32.2574 10.7574C32.8145 10.2002 33.4759 9.75825 34.2039 9.45672C34.9319 9.15519 35.7121 9 36.5 9C38.0913 9 39.6174 9.63214 40.7426 10.7574C41.8679 11.8826 42.5 13.4087 42.5 15C42.5 16.5913 41.8679 18.1174 40.7426 19.2426C39.6174 20.3679 38.0913 21 36.5 21V21Z" fill="black"/>
</g>
<rect x="17" y="0.5" width="39" height="39" rx="3.5" stroke="black" shape-rendering="crispEdges"/>
</g>
<path d="M17.792 61V52.6H21.248C21.776 52.6 22.24 52.708 22.64 52.924C23.048 53.132 23.364 53.428 23.588 53.812C23.82 54.196 23.936 54.652 23.936 55.18V55.348C23.936 55.868 23.816 56.324 23.576 56.716C23.344 57.1 23.024 57.4 22.616 57.616C22.216 57.824 21.76 57.928 21.248 57.928H19.376V61H17.792ZM19.376 56.488H21.092C21.468 56.488 21.772 56.384 22.004 56.176C22.236 55.968 22.352 55.684 22.352 55.324V55.204C22.352 54.844 22.236 54.56 22.004 54.352C21.772 54.144 21.468 54.04 21.092 54.04H19.376V56.488ZM25.2822 61V55.048H26.7702V55.72H26.9862C27.0742 55.48 27.2182 55.304 27.4182 55.192C27.6262 55.08 27.8662 55.024 28.1382 55.024H28.8582V56.368H28.1142C27.7302 56.368 27.4142 56.472 27.1662 56.68C26.9182 56.88 26.7942 57.192 26.7942 57.616V61H25.2822ZM32.8611 61.168C32.2691 61.168 31.7371 61.048 31.2651 60.808C30.7931 60.568 30.4211 60.22 30.1491 59.764C29.8771 59.308 29.7411 58.76 29.7411 58.12V57.928C29.7411 57.288 29.8771 56.74 30.1491 56.284C30.4211 55.828 30.7931 55.48 31.2651 55.24C31.7371 55 32.2691 54.88 32.8611 54.88C33.4531 54.88 33.9851 55 34.4571 55.24C34.9291 55.48 35.3011 55.828 35.5731 56.284C35.8451 56.74 35.9811 57.288 35.9811 57.928V58.12C35.9811 58.76 35.8451 59.308 35.5731 59.764C35.3011 60.22 34.9291 60.568 34.4571 60.808C33.9851 61.048 33.4531 61.168 32.8611 61.168ZM32.8611 59.824C33.3251 59.824 33.7091 59.676 34.0131 59.38C34.3171 59.076 34.4691 58.644 34.4691 58.084V57.964C34.4691 57.404 34.3171 56.976 34.0131 56.68C33.7171 56.376 33.3331 56.224 32.8611 56.224C32.3971 56.224 32.0131 56.376 31.7091 56.68C31.4051 56.976 31.2531 57.404 31.2531 57.964V58.084C31.2531 58.644 31.4051 59.076 31.7091 59.38C32.0131 59.676 32.3971 59.824 32.8611 59.824ZM38.3615 61V56.296H36.8495V55.048H38.3615V53.944C38.3615 53.536 38.4815 53.212 38.7215 52.972C38.9695 52.724 39.2895 52.6 39.6815 52.6H41.1215V53.848H40.2095C39.9855 53.848 39.8735 53.968 39.8735 54.208V55.048H42.2735V56.296H39.8735V61H38.3615ZM42.2735 61V55.048H43.7855V61H42.2735ZM43.0295 54.4C42.7575 54.4 42.5255 54.312 42.3335 54.136C42.1495 53.96 42.0575 53.728 42.0575 53.44C42.0575 53.152 42.1495 52.92 42.3335 52.744C42.5255 52.568 42.7575 52.48 43.0295 52.48C43.3095 52.48 43.5415 52.568 43.7255 52.744C43.9095 52.92 44.0015 53.152 44.0015 53.44C44.0015 53.728 43.9095 53.96 43.7255 54.136C43.5415 54.312 43.3095 54.4 43.0295 54.4ZM45.6634 61V52.6H47.1754V61H45.6634ZM51.7629 61.168C51.1709 61.168 50.6469 61.044 50.1909 60.796C49.7429 60.54 49.3909 60.184 49.1349 59.728C48.8869 59.264 48.7629 58.72 48.7629 58.096V57.952C48.7629 57.328 48.8869 56.788 49.1349 56.332C49.3829 55.868 49.7309 55.512 50.1789 55.264C50.6269 55.008 51.1469 54.88 51.7389 54.88C52.3229 54.88 52.8309 55.012 53.2629 55.276C53.6949 55.532 54.0309 55.892 54.2709 56.356C54.5109 56.812 54.6309 57.344 54.6309 57.952V58.468H50.2989C50.3149 58.876 50.4669 59.208 50.7549 59.464C51.0429 59.72 51.3949 59.848 51.8109 59.848C52.2349 59.848 52.5469 59.756 52.7469 59.572C52.9469 59.388 53.0989 59.184 53.2029 58.96L54.4389 59.608C54.3269 59.816 54.1629 60.044 53.9469 60.292C53.7389 60.532 53.4589 60.74 53.1069 60.916C52.7549 61.084 52.3069 61.168 51.7629 61.168ZM50.3109 57.34H53.0949C53.0629 56.996 52.9229 56.72 52.6749 56.512C52.4349 56.304 52.1189 56.2 51.7269 56.2C51.3189 56.2 50.9949 56.304 50.7549 56.512C50.5149 56.72 50.3669 56.996 50.3109 57.34Z" fill="black"/>
<defs>
<filter id="filter0_dddd_1641_1654" x="16.5" y="0" width="44" height="44" filterUnits="userSpaceOnUse" color-interpolation-filters="sRGB">
<feFlood flood-opacity="0" result="BackgroundImageFix"/>
<feColorMatrix in="SourceAlpha" type="matrix" values="0 0 0 0 0 0 0 0 0 0 0 0 0 0 0 0 0 0 127 0" result="hardAlpha"/>
<feOffset dx="4" dy="4"/>
<feComposite in2="hardAlpha" operator="out"/>
<feColorMatrix type="matrix" values="0 0 0 0 0 0 0 0 0 0 0 0 0 0 0 0 0 0 1 0"/>
<feBlend mode="normal" in2="BackgroundImageFix" result="effect1_dropShadow_1641_1654"/>
<feColorMatrix in="SourceAlpha" type="matrix" values="0 0 0 0 0 0 0 0 0 0 0 0 0 0 0 0 0 0 127 0" result="hardAlpha"/>
<feOffset dx="2" dy="2"/>
<feComposite in2="hardAlpha" operator="out"/>
<feColorMatrix type="matrix" values="0 0 0 0 0 0 0 0 0 0 0 0 0 0 0 0 0 0 1 0"/>
<feBlend mode="normal" in2="effect1_dropShadow_1641_1654" result="effect2_dropShadow_1641_1654"/>
<feColorMatrix in="SourceAlpha" type="matrix" values="0 0 0 0 0 0 0 0 0 0 0 0 0 0 0 0 0 0 127 0" result="hardAlpha"/>
<feOffset dx="3" dy="3"/>
<feComposite in2="hardAlpha" operator="out"/>
<feColorMatrix type="matrix" values="0 0 0 0 0 0 0 0 0 0 0 0 0 0 0 0 0 0 1 0"/>
<feBlend mode="normal" in2="effect2_dropShadow_1641_1654" result="effect3_dropShadow_1641_1654"/>
<feColorMatrix in="SourceAlpha" type="matrix" values="0 0 0 0 0 0 0 0 0 0 0 0 0 0 0 0 0 0 127 0" result="hardAlpha"/>
<feOffset dx="1" dy="1"/>
<feComposite in2="hardAlpha" operator="out"/>
<feColorMatrix type="matrix" values="0 0 0 0 0 0 0 0 0 0 0 0 0 0 0 0 0 0 1 0"/>
<feBlend mode="normal" in2="effect3_dropShadow_1641_1654" result="effect4_dropShadow_1641_1654"/>
<feBlend mode="normal" in="SourceGraphic" in2="effect4_dropShadow_1641_1654" result="shape"/>
</filter>
<clipPath id="clip0_1641_1654">
<rect width="24" height="24" fill="white" transform="translate(24.5 8)"/>
</clipPath>
</defs>
</svg>
