<svg width="163" height="32" viewBox="0 0 163 32" fill="none" xmlns="http://www.w3.org/2000/svg">
<path d="M31.2205 26L29 6L118 5L111.904 28L31.2205 26Z" fill="#FFC700"/>
<path d="M1.32 23V9H6.22L8.64 21.2H9L11.42 9H16.32V23H13.76V10.94H13.4L11 23H6.64L4.24 10.94H3.88V23H1.32ZM19.7167 27V24.8H25.1167C25.4901 24.8 25.6767 24.6 25.6767 24.2V21.7H25.3167C25.2101 21.9267 25.0434 22.1533 24.8167 22.38C24.5901 22.6067 24.2834 22.7933 23.8967 22.94C23.5101 23.0867 23.0167 23.16 22.4167 23.16C21.6434 23.16 20.9634 22.9867 20.3767 22.64C19.8034 22.28 19.3567 21.7867 19.0367 21.16C18.7167 20.5333 18.5567 19.8133 18.5567 19V13.08H21.0767V18.8C21.0767 19.5467 21.2567 20.1067 21.6167 20.48C21.9901 20.8533 22.5167 21.04 23.1967 21.04C23.9701 21.04 24.5701 20.7867 24.9967 20.28C25.4234 19.76 25.6367 19.04 25.6367 18.12V13.08H28.1567V24.76C28.1567 25.44 27.9567 25.98 27.5567 26.38C27.1567 26.7933 26.6234 27 25.9567 27H19.7167ZM35.1591 23V9H40.9191C41.7991 9 42.5724 9.18 43.2391 9.54C43.9191 9.88667 44.4457 10.38 44.8191 11.02C45.2057 11.66 45.3991 12.42 45.3991 13.3V13.58C45.3991 14.4467 45.1991 15.2067 44.7991 15.86C44.4124 16.5 43.8791 17 43.1991 17.36C42.5324 17.7067 41.7724 17.88 40.9191 17.88H37.7991V23H35.1591ZM37.7991 15.48H40.6591C41.2857 15.48 41.7924 15.3067 42.1791 14.96C42.5657 14.6133 42.7591 14.14 42.7591 13.54V13.34C42.7591 12.74 42.5657 12.2667 42.1791 11.92C41.7924 11.5733 41.2857 11.4 40.6591 11.4H37.7991V15.48ZM46.9094 23V13.08H49.3894V14.2H49.7494C49.896 13.8 50.136 13.5067 50.4694 13.32C50.816 13.1333 51.216 13.04 51.6694 13.04H52.8694V15.28H51.6294C50.9894 15.28 50.4627 15.4533 50.0494 15.8C49.636 16.1333 49.4294 16.6533 49.4294 17.36V23H46.9094ZM58.8075 23.28C57.8208 23.28 56.9342 23.08 56.1475 22.68C55.3608 22.28 54.7408 21.7 54.2875 20.94C53.8342 20.18 53.6075 19.2667 53.6075 18.2V17.88C53.6075 16.8133 53.8342 15.9 54.2875 15.14C54.7408 14.38 55.3608 13.8 56.1475 13.4C56.9342 13 57.8208 12.8 58.8075 12.8C59.7942 12.8 60.6808 13 61.4675 13.4C62.2542 13.8 62.8742 14.38 63.3275 15.14C63.7808 15.9 64.0075 16.8133 64.0075 17.88V18.2C64.0075 19.2667 63.7808 20.18 63.3275 20.94C62.8742 21.7 62.2542 22.28 61.4675 22.68C60.6808 23.08 59.7942 23.28 58.8075 23.28ZM58.8075 21.04C59.5808 21.04 60.2208 20.7933 60.7275 20.3C61.2342 19.7933 61.4875 19.0733 61.4875 18.14V17.94C61.4875 17.0067 61.2342 16.2933 60.7275 15.8C60.2342 15.2933 59.5942 15.04 58.8075 15.04C58.0342 15.04 57.3942 15.2933 56.8875 15.8C56.3808 16.2933 56.1275 17.0067 56.1275 17.94V18.14C56.1275 19.0733 56.3808 19.7933 56.8875 20.3C57.3942 20.7933 58.0342 21.04 58.8075 21.04ZM64.0936 27V24.84H65.4136C65.7869 24.84 65.9736 24.64 65.9736 24.24V13.08H68.4936V24.76C68.4936 25.44 68.2936 25.98 67.8936 26.38C67.4936 26.7933 66.9603 27 66.2936 27H64.0936ZM67.2336 11.92C66.7803 11.92 66.3936 11.7733 66.0736 11.48C65.7669 11.1867 65.6136 10.8 65.6136 10.32C65.6136 9.84 65.7669 9.45333 66.0736 9.16C66.3936 8.86667 66.7803 8.72 67.2336 8.72C67.7003 8.72 68.0869 8.86667 68.3936 9.16C68.7003 9.45333 68.8536 9.84 68.8536 10.32C68.8536 10.8 68.7003 11.1867 68.3936 11.48C68.0869 11.7733 67.7003 11.92 67.2336 11.92ZM75.4052 23.28C74.4185 23.28 73.5452 23.0733 72.7852 22.66C72.0385 22.2333 71.4518 21.64 71.0252 20.88C70.6118 20.1067 70.4052 19.2 70.4052 18.16V17.92C70.4052 16.88 70.6118 15.98 71.0252 15.22C71.4385 14.4467 72.0185 13.8533 72.7652 13.44C73.5118 13.0133 74.3785 12.8 75.3652 12.8C76.3385 12.8 77.1852 13.02 77.9052 13.46C78.6252 13.8867 79.1852 14.4867 79.5852 15.26C79.9852 16.02 80.1852 16.9067 80.1852 17.92V18.78H72.9652C72.9918 19.46 73.2452 20.0133 73.7252 20.44C74.2052 20.8667 74.7918 21.08 75.4852 21.08C76.1918 21.08 76.7118 20.9267 77.0452 20.62C77.3785 20.3133 77.6318 19.9733 77.8052 19.6L79.8652 20.68C79.6785 21.0267 79.4052 21.4067 79.0452 21.82C78.6985 22.22 78.2318 22.5667 77.6452 22.86C77.0585 23.14 76.3118 23.28 75.4052 23.28ZM72.9852 16.9H77.6252C77.5718 16.3267 77.3385 15.8667 76.9252 15.52C76.5252 15.1733 75.9985 15 75.3452 15C74.6652 15 74.1252 15.1733 73.7252 15.52C73.3252 15.8667 73.0785 16.3267 72.9852 16.9ZM86.6881 23.28C85.7281 23.28 84.8548 23.08 84.0681 22.68C83.2948 22.28 82.6815 21.7 82.2281 20.94C81.7748 20.18 81.5481 19.26 81.5481 18.18V17.9C81.5481 16.82 81.7748 15.9 82.2281 15.14C82.6815 14.38 83.2948 13.8 84.0681 13.4C84.8548 13 85.7281 12.8 86.6881 12.8C87.6348 12.8 88.4481 12.9667 89.1281 13.3C89.8081 13.6333 90.3548 14.0933 90.7681 14.68C91.1948 15.2533 91.4748 15.9067 91.6081 16.64L89.1681 17.16C89.1148 16.76 88.9948 16.4 88.8081 16.08C88.6215 15.76 88.3548 15.5067 88.0081 15.32C87.6748 15.1333 87.2548 15.04 86.7481 15.04C86.2415 15.04 85.7815 15.1533 85.3681 15.38C84.9681 15.5933 84.6481 15.92 84.4081 16.36C84.1815 16.7867 84.0681 17.3133 84.0681 17.94V18.14C84.0681 18.7667 84.1815 19.3 84.4081 19.74C84.6481 20.1667 84.9681 20.4933 85.3681 20.72C85.7815 20.9333 86.2415 21.04 86.7481 21.04C87.5081 21.04 88.0815 20.8467 88.4681 20.46C88.8681 20.06 89.1215 19.54 89.2281 18.9L91.6681 19.48C91.4948 20.1867 91.1948 20.8333 90.7681 21.42C90.3548 21.9933 89.8081 22.4467 89.1281 22.78C88.4481 23.1133 87.6348 23.28 86.6881 23.28ZM96.8148 23C96.1615 23 95.6282 22.8 95.2148 22.4C94.8148 21.9867 94.6148 21.44 94.6148 20.76V15.16H92.1348V13.08H94.6148V10H97.1348V13.08H99.8548V15.16H97.1348V20.32C97.1348 20.72 97.3215 20.92 97.6948 20.92H99.6148V23H96.8148ZM105.856 23.28C104.563 23.28 103.503 23 102.676 22.44C101.849 21.88 101.349 21.08 101.176 20.04L103.496 19.44C103.589 19.9067 103.743 20.2733 103.956 20.54C104.183 20.8067 104.456 21 104.776 21.12C105.109 21.2267 105.469 21.28 105.856 21.28C106.443 21.28 106.876 21.18 107.156 20.98C107.436 20.7667 107.576 20.5067 107.576 20.2C107.576 19.8933 107.443 19.66 107.176 19.5C106.909 19.3267 106.483 19.1867 105.896 19.08L105.336 18.98C104.643 18.8467 104.009 18.6667 103.436 18.44C102.863 18.2 102.403 17.8733 102.056 17.46C101.709 17.0467 101.536 16.5133 101.536 15.86C101.536 14.8733 101.896 14.12 102.616 13.6C103.336 13.0667 104.283 12.8 105.456 12.8C106.563 12.8 107.483 13.0467 108.216 13.54C108.949 14.0333 109.429 14.68 109.656 15.48L107.316 16.2C107.209 15.6933 106.989 15.3333 106.656 15.12C106.336 14.9067 105.936 14.8 105.456 14.8C104.976 14.8 104.609 14.8867 104.356 15.06C104.103 15.22 103.976 15.4467 103.976 15.74C103.976 16.06 104.109 16.3 104.376 16.46C104.643 16.6067 105.003 16.72 105.456 16.8L106.016 16.9C106.763 17.0333 107.436 17.2133 108.036 17.44C108.649 17.6533 109.129 17.9667 109.476 18.38C109.836 18.78 110.016 19.3267 110.016 20.02C110.016 21.06 109.636 21.8667 108.876 22.44C108.129 23 107.123 23.28 105.856 23.28Z" fill="black"/>
</svg>
