<svg width="36" height="36" viewBox="0 0 36 36" fill="none" xmlns="http://www.w3.org/2000/svg">
<rect x="0.5" y="0.5" width="35" height="35" rx="3.5" fill="#FFC900"/>
<g clip-path="url(#clip0_1703_1837)">
<path d="M26 28H10V26C10 24.6739 10.5268 23.4021 11.4645 22.4645C12.4021 21.5268 13.6739 21 15 21H21C22.3261 21 23.5979 21.5268 24.5355 22.4645C25.4732 23.4021 26 24.6739 26 26V28ZM18 19C17.2121 19 16.4319 18.8448 15.7039 18.5433C14.9759 18.2417 14.3145 17.7998 13.7574 17.2426C13.2002 16.6855 12.7583 16.0241 12.4567 15.2961C12.1552 14.5681 12 13.7879 12 13C12 12.2121 12.1552 11.4319 12.4567 10.7039C12.7583 9.97595 13.2002 9.31451 13.7574 8.75736C14.3145 8.20021 14.9759 7.75825 15.7039 7.45672C16.4319 7.15519 17.2121 7 18 7C19.5913 7 21.1174 7.63214 22.2426 8.75736C23.3679 9.88258 24 11.4087 24 13C24 14.5913 23.3679 16.1174 22.2426 17.2426C21.1174 18.3679 19.5913 19 18 19V19Z" fill="black"/>
</g>
<rect x="0.5" y="0.5" width="35" height="35" rx="3.5" stroke="black"/>
<defs>
<clipPath id="clip0_1703_1837">
<rect width="24" height="24" fill="white" transform="translate(6 6)"/>
</clipPath>
</defs>
</svg>
