<svg width="40" height="40" viewBox="0 0 40 40" fill="none" xmlns="http://www.w3.org/2000/svg">
<rect x="1" y="1" width="38" height="38" rx="3" fill="white"/>
<g clip-path="url(#clip0_1380_1156)">
<path d="M28 30H26V28C26 27.2044 25.6839 26.4413 25.1213 25.8787C24.5587 25.3161 23.7956 25 23 25H17C16.2044 25 15.4413 25.3161 14.8787 25.8787C14.3161 26.4413 14 27.2044 14 28V30H12V28C12 26.6739 12.5268 25.4021 13.4645 24.4645C14.4021 23.5268 15.6739 23 17 23H23C24.3261 23 25.5979 23.5268 26.5355 24.4645C27.4732 25.4021 28 26.6739 28 28V30ZM20 21C19.2121 21 18.4319 20.8448 17.7039 20.5433C16.9759 20.2417 16.3145 19.7998 15.7574 19.2426C15.2002 18.6855 14.7583 18.0241 14.4567 17.2961C14.1552 16.5681 14 15.7879 14 15C14 14.2121 14.1552 13.4319 14.4567 12.7039C14.7583 11.9759 15.2002 11.3145 15.7574 10.7574C16.3145 10.2002 16.9759 9.75825 17.7039 9.45672C18.4319 9.15519 19.2121 9 20 9C21.5913 9 23.1174 9.63214 24.2426 10.7574C25.3679 11.8826 26 13.4087 26 15C26 16.5913 25.3679 18.1174 24.2426 19.2426C23.1174 20.3679 21.5913 21 20 21ZM20 19C21.0609 19 22.0783 18.5786 22.8284 17.8284C23.5786 17.0783 24 16.0609 24 15C24 13.9391 23.5786 12.9217 22.8284 12.1716C22.0783 11.4214 21.0609 11 20 11C18.9391 11 17.9217 11.4214 17.1716 12.1716C16.4214 12.9217 16 13.9391 16 15C16 16.0609 16.4214 17.0783 17.1716 17.8284C17.9217 18.5786 18.9391 19 20 19Z" fill="#09121F"/>
</g>
<rect x="1" y="1" width="38" height="38" rx="3" stroke="black" stroke-width="2"/>
<defs>
<clipPath id="clip0_1380_1156">
<rect width="24" height="24" fill="white" transform="translate(8 8)"/>
</clipPath>
</defs>
</svg>
