<svg width="67" height="67" viewBox="0 0 67 67" fill="none" xmlns="http://www.w3.org/2000/svg">
<g filter="url(#filter0_dddd_1567_1554)">
<g clip-path="url(#clip0_1567_1554)">
<rect width="64" height="64" rx="5.12" fill="#FF90E8"/>
<path d="M56.3248 71.1948H3.43066C3.43066 71.1948 6.547 64.6275 7.9274 57.1399C8.88949 51.953 9.6006 48.9203 12.2986 47.2471C14.2019 46.0758 19.5562 44.3817 23.3627 43.8379C24.9104 43.6288 27.9849 43.3987 30.6411 43.6079C32.649 43.8589 36.7901 45.0301 38.3797 45.4693C40.764 46.1386 45.93 48.1255 48.2098 50.217C49.1091 51.0536 51.2424 55.2366 52.6228 61.302C54.2124 68.204 56.3248 71.1948 56.3248 71.1948Z" fill="white"/>
<path d="M56.8053 71.4456C41.0563 71.5711 18.97 71.8639 3.45107 71.843C2.99094 71.8639 2.6563 71.341 2.86545 70.9227C3.24192 70.128 3.59748 69.3123 3.93212 68.4757C5.438 64.7528 6.71382 60.9254 7.48768 56.9933C8.11513 53.9188 8.61709 50.4888 10.9387 48.1672C11.587 47.5188 12.3818 47.0169 13.1975 46.6404C14.8498 45.8875 16.5439 45.26 18.2589 44.7162C21.7099 43.5868 25.37 43.1058 29.0092 43.1685C30.8289 43.1685 32.6694 43.4613 34.4472 43.8796C35.221 44.026 36.3086 44.3607 37.0615 44.5698L37.7099 44.758C37.8354 44.8208 37.8772 45.0718 37.94 45.1973C37.9818 45.2809 38.0236 45.3018 38.0864 45.3227C38.1909 45.3437 38.3583 45.1973 38.4628 45.2391C40.5753 45.8665 42.604 46.7868 44.5491 47.8116C45.9295 48.5855 47.3517 49.3384 48.4811 50.4678C49.4642 51.7227 50.2589 53.1241 50.991 54.5463C52.7687 58.2064 53.2707 62.3476 54.6302 66.1332C55.1321 67.5763 55.7177 69.0195 56.4289 70.379L56.5753 70.6508L56.6589 70.7973L56.7008 70.86L56.7217 70.9018C56.8472 70.9855 56.889 71.2992 56.8053 71.4456ZM55.8432 70.9437C55.7387 71.0692 55.7596 71.341 55.8432 71.4456L55.8223 71.4038L55.7805 71.3201L55.6968 71.1737C54.8393 69.6678 54.2328 68.0574 53.689 66.426C52.2668 62.1593 51.8066 57.5999 49.7988 53.5424C49.2968 52.5175 48.7949 51.4718 48.0419 50.6142C47.6027 50.2169 47.1217 49.8822 46.6197 49.5685C44.3609 48.1881 41.8302 47.2469 39.3413 46.3476C39.1321 46.2639 38.6092 46.0966 38.4001 46.0339C38.2328 45.992 38.17 45.9711 38.1282 45.762C38.0864 45.5946 38.0445 45.3855 37.8563 45.4691C37.7517 45.511 37.5635 45.762 37.438 45.741C37.0197 45.6365 35.9112 45.3437 35.4929 45.2391C33.8825 44.8208 32.2929 44.2979 30.6615 43.9842C25.6419 43.545 20.6223 44.4234 15.8328 45.9084C14.1805 46.4731 12.3609 46.9959 11.1687 48.3554C9.09813 50.928 8.74258 55.2574 8.09421 58.4574C7.19487 62.9123 5.83539 67.2417 4.01578 71.4456L3.43016 70.5254C18.5726 70.5881 40.4916 70.7763 55.8432 70.9437Z" fill="black"/>
<path d="M22.7137 45.9497C22.0653 46.0124 21.3751 46.1588 20.7895 46.4935C20.7267 46.5353 20.6431 46.4307 20.7058 46.3889C21.2496 45.9078 21.9398 45.6359 22.6091 45.4268C22.7555 45.385 22.9019 45.4686 22.9228 45.615C22.9856 45.7823 22.881 45.9497 22.7137 45.9497Z" fill="black"/>
<path d="M24.3875 48.6266C23.6346 48.7939 22.9026 49.1495 22.296 49.6514C21.815 49.7351 23.0281 48.7521 23.1117 48.7103C23.4673 48.4593 23.8228 48.271 24.2411 48.1037C24.3666 48.0619 24.5339 48.1246 24.5758 48.2501C24.6594 48.4384 24.5549 48.6057 24.3875 48.6266Z" fill="black"/>
<path d="M27.0849 51.3039C26.4784 51.785 25.9555 52.4334 25.6208 53.1445C25.5999 53.1863 25.5372 53.2072 25.4953 53.1863C25.4535 53.1654 25.4326 53.1236 25.4535 53.0817C25.579 52.6843 25.7463 52.287 25.9764 51.9314C26.2065 51.5549 26.4574 51.2203 26.7502 50.9066C26.8548 50.802 27.0221 50.802 27.1267 50.9066C27.2313 51.0111 27.2313 51.2203 27.0849 51.3039Z" fill="black"/>
<path d="M31.6032 53.375C31.2477 54.1279 30.9758 54.9436 30.934 55.7802C30.934 55.9266 30.683 55.9266 30.683 55.7802C30.6412 55.1109 30.7457 54.4416 30.934 53.8142C31.0385 53.5632 31.0595 52.8939 31.4778 53.0194C31.6032 53.0613 31.666 53.2286 31.6032 53.375Z" fill="black"/>
<path d="M36.3922 53.4586C36.5177 53.7514 37.4798 56.0939 37.0197 56.1148C36.9569 56.1148 36.8942 56.073 36.8942 56.0102C36.8733 55.8011 36.8105 55.6129 36.7269 55.4037C36.5177 54.8181 36.2249 54.2325 35.9112 53.6887C35.7648 53.375 36.2458 53.124 36.3922 53.4586Z" fill="black"/>
<path d="M38.3788 48.8359C39.1527 48.9823 39.8011 49.4425 40.2821 50.0281C40.303 50.049 40.303 50.1117 40.2821 50.1326C40.2612 50.1536 40.2194 50.1536 40.1775 50.1326C39.6756 49.6934 39.0063 49.3797 38.337 49.3588C37.9396 49.3379 38.0024 48.7732 38.3788 48.8359Z" fill="black"/>
<path d="M37.6255 46.3893C38.2739 46.5566 38.8804 46.8285 39.3614 47.2886C39.4033 47.3305 39.4033 47.3932 39.3614 47.4351C39.3196 47.4769 39.2778 47.4769 39.236 47.456C38.734 47.1213 38.1275 46.954 37.5418 46.9122C37.1654 46.8703 37.249 46.3056 37.6255 46.3893Z" fill="black"/>
<path d="M38.3793 51.7848C38.9649 52.2658 39.5505 52.7678 39.927 53.4371C39.9479 53.458 39.927 53.4998 39.9061 53.5207C39.8852 53.5417 39.8433 53.5207 39.8224 53.4998C39.3623 52.9351 38.7349 52.5587 38.1074 52.2031C37.7728 52.0358 38.0656 51.5547 38.3793 51.7848Z" fill="black"/>
<path d="M38.2734 51.368C37.8342 53.5223 34.9898 54.819 30.2002 52.8739C25.2225 50.866 23.0682 46.0765 22.5244 44.6543C25.4734 39.1327 23.4238 35.3053 23.4238 35.3053C30.2211 34.7196 36.161 42.6673 36.161 42.6673L37.0813 46.5994C37.1649 46.934 37.3323 47.2268 37.5832 47.436C38.0225 48.2098 38.5453 49.9876 38.2734 51.368Z" fill="white"/>
<path d="M22.4199 44.7174C22.8173 44.1109 23.0683 43.3998 23.2356 42.7096C23.5494 41.2664 23.6539 39.8024 23.6748 38.3383V37.7945C23.6121 37.2508 23.4239 36.6861 23.2147 36.1841C22.9428 35.5148 23.9258 35.0965 24.2396 35.7658C24.2814 35.8494 24.2814 35.9959 24.2814 36.0795C24.3441 38.924 24.4696 42.5841 22.6709 44.9475C22.5454 45.073 22.2945 44.8847 22.4199 44.7174Z" fill="black"/>
<path d="M36.3909 42.6256C36.7046 42.8138 36.8092 43.0648 36.851 43.3158C36.9765 43.8177 36.9347 44.3615 37.0602 44.8844C37.1648 45.3863 37.4785 45.8674 37.5622 46.3903C37.6667 46.9341 37.9805 48.0844 38.1059 48.6491C38.1478 48.7746 38.0641 48.921 37.9177 48.9419C37.8341 48.9628 37.7713 48.9419 37.7086 48.9001C37.4367 48.67 37.3112 48.4399 37.1439 48.1471C36.872 47.6452 36.6837 47.185 36.5164 46.6203C36.37 46.1184 36.4327 45.5746 36.3073 45.0517C36.2027 44.5497 35.9099 44.0687 35.8053 43.5458C35.7425 43.2948 35.7216 43.0229 35.9099 42.7092C36.0354 42.5837 36.2445 42.5419 36.3909 42.6256Z" fill="black"/>
<path d="M37.8975 48.1467C33.9028 47.9375 30.64 46.6826 27.4609 41.0146C30.1381 43.378 33.2962 44.2774 36.6217 44.6957L37.0609 46.6199C37.1446 46.9545 37.6466 47.9375 37.8975 48.1467Z" fill="black"/>
<path d="M37.7299 47.3729C38.4411 48.7115 38.8594 50.3847 38.4201 51.8696C38.0855 52.9154 37.1234 53.6893 36.0777 53.9821C33.6515 54.6304 30.8489 53.6056 28.6947 52.4553C26.0384 50.9703 24.0724 48.4814 22.8175 45.7625C22.7339 45.5533 23.0267 45.386 23.1522 45.5951C23.5914 46.4736 24.0933 47.3311 24.6581 48.1049C25.2228 48.8997 25.8711 49.6317 26.6032 50.2801C28.7365 52.2043 31.6228 53.3964 34.509 53.3964C37.479 53.3128 38.6084 51.7442 37.9182 48.8579C37.8136 48.3978 37.6463 47.9167 37.4162 47.5193C37.2907 47.352 37.6045 47.1638 37.7299 47.3729Z" fill="black"/>
<path d="M45.8243 22.2538C46.2008 24.0107 46.389 25.4329 45.3642 30.1179C44.3602 34.7819 46.3053 39.4878 41.3694 43.7754C38.0439 46.6617 32.2295 47.2055 27.5864 44.0473C26.0178 42.9806 25.5995 38.0028 24.3655 36.0996C23.8426 35.3048 23.5289 36.5806 22.3367 35.263C20.6844 33.4643 18.6975 29.846 19.6805 23.446C21.27 13.0721 29.4897 11.859 35.5759 13.0094C41.6831 14.1597 44.8204 17.6316 45.8243 22.2538Z" fill="white"/>
<path d="M23.3612 37.104C22.8802 36.3092 22.2736 35.619 21.7089 34.887C20.8723 33.7576 20.2449 32.4609 19.8266 31.1223C18.0279 25.3916 18.99 17.9249 24.3024 14.3484C29.2174 11.0229 38.6083 12.0269 42.9168 16.0425C45.071 17.9876 46.2632 20.8112 46.5142 23.6556C46.6397 25.5589 46.1795 27.3994 45.7821 29.2399C45.322 31.0386 45.2174 32.8373 45.2174 34.6988C45.1965 36.5602 45.1129 38.5053 44.4018 40.2622C43.3142 42.9393 41.0344 45.1145 38.2946 46.0347C34.6972 47.2896 30.4514 46.5785 27.5024 44.1733C27.3769 44.0687 27.5024 43.9014 27.6488 43.9641C31.5181 46.1602 36.6004 46.5367 40.3652 44.006C42.6031 42.5001 44.1508 40.1158 44.5063 37.4386C44.7991 35.619 44.7155 33.7785 44.8828 31.938C44.9455 31.1223 45.1756 29.9929 45.3429 29.1772C45.5939 27.8177 45.7612 26.4582 45.7403 25.0988C45.7194 23.7602 45.4266 22.4425 45.0292 21.1667C43.6488 16.6282 39.6959 13.951 35.1364 13.219C28.3181 12.0269 22.3573 14.5576 20.5795 21.6478C19.8057 25.1197 19.1991 28.9471 20.6632 32.3144C21.1861 33.5903 22.0436 34.6778 23.0266 35.619L23.9887 36.6439C24.407 37.0622 23.6959 37.6059 23.3612 37.104Z" fill="black"/>
<path d="M25.8294 30.4523C25.8294 30.4523 25.181 27.315 22.1274 27.6915C19.4921 28.0262 18.5719 34.3425 24.5536 36.0994" fill="white"/>
<path d="M24.2814 33.3604C23.8004 33.0885 23.4657 32.6283 23.4448 32.0636C23.4657 31.6453 23.5285 31.1643 23.4239 30.746C23.3612 30.3486 22.9429 30.244 22.6291 30.2649C22.2945 30.3277 22.0854 30.746 22.0226 31.0806C22.0226 31.1015 22.0017 31.1643 22.0017 31.1852C21.9808 31.2898 21.8135 31.2898 21.7716 31.1852C21.4997 30.3695 22.1063 29.4702 22.9847 29.5747C24.2187 29.6584 24.386 30.9551 24.1559 31.9381C24.0304 32.3564 24.1978 32.7329 24.4278 33.0885L24.4697 33.1512C24.5742 33.2767 24.4069 33.444 24.2814 33.3604Z" fill="black"/>
<path d="M41.0133 28.2357C41.327 29.7206 41.9126 31.101 42.6447 32.3977C43.293 33.9873 41.6198 35.4932 40.1349 35.4304C39.9675 35.4304 39.9466 35.2004 40.093 35.1585C41.0342 34.8657 41.8917 34.2383 42.0381 33.2762C42.1009 32.9834 42.0172 32.7324 41.8708 32.4814C41.1806 31.1847 40.7623 29.6997 40.8669 28.2357C40.8669 28.1311 41.0133 28.1311 41.0133 28.2357Z" fill="black"/>
<path d="M25.7247 30.4739C25.2437 29.2399 24.198 28.0687 22.7966 28.0896C22.6712 28.0687 22.462 28.1105 22.3365 28.1105C21.981 28.1314 21.6881 28.2569 21.4163 28.5079C20.0777 29.8464 20.3078 32.2098 21.3953 33.6948C21.7718 34.2177 22.2529 34.6778 22.7966 35.0543C23.3404 35.4307 23.947 35.7236 24.5953 35.9745C24.7417 36.0164 24.679 36.2464 24.5326 36.2255C23.1313 35.9327 21.7927 35.2425 20.8725 34.0922C19.4502 32.3771 19.1574 29.5118 20.8515 27.8386C21.228 27.5039 21.7509 27.253 22.2738 27.253C22.4411 27.253 22.6921 27.2111 22.8594 27.253C23.7378 27.2948 24.5744 27.734 25.1182 28.4242C25.5993 29.0098 25.8712 29.7209 25.9548 30.4321C25.9548 30.5575 25.7666 30.5994 25.7247 30.4739Z" fill="black"/>
<path d="M39.6123 37.4169C39.2568 37.6679 38.7339 37.4587 38.3574 37.626C38.0855 37.7097 37.6463 38.0862 37.0189 38.0443C36.5169 38.0025 36.2659 37.7515 35.8476 37.5633C35.4084 37.4169 34.9483 37.145 34.6555 36.7894C34.5927 36.7267 34.5927 36.643 34.6555 36.5803C34.7391 36.4966 34.8228 36.5594 34.9064 36.6012C35.0947 36.7058 35.2411 36.7895 35.3875 36.8313C35.5339 36.8731 35.6803 36.8313 35.9104 36.8313C36.1404 36.8104 36.4751 36.9149 36.6842 37.0823C36.8306 37.1868 36.9979 37.2496 37.1234 37.2705C37.4581 37.3332 37.8764 37.0613 38.2319 37.0195C38.4829 36.9777 38.7548 36.9986 38.964 37.0613C39.1731 37.1241 39.3195 37.1659 39.4868 37.1241C39.6751 37.0823 39.7796 37.3332 39.6123 37.4169Z" fill="black"/>
<path d="M36.2869 26.0188C36.747 26.0816 37.1026 25.6005 36.9353 25.1404C36.8516 24.8894 36.7052 24.6593 36.4751 24.5129C35.764 24.0737 33.1078 24.0319 31.7065 25.0358C30.4516 25.9561 34.1954 25.726 36.2869 26.0188Z" fill="black"/>
<path d="M42.0801 26.2491C41.7036 26.2491 41.4735 25.768 41.6618 25.3706C41.7663 25.1615 41.9127 24.9732 42.1219 24.8687C42.7702 24.5549 44.5062 24.7432 45.2801 25.8098C45.9703 26.751 43.816 26.2281 42.0801 26.2491Z" fill="black"/>
<path d="M35.5971 28.7798C34.8651 29.4282 33.7357 29.4282 32.8572 29.0935C32.7108 29.0308 31.8742 28.6543 32.0415 28.4451C32.0625 28.4242 32.1043 28.4033 32.1252 28.4033C32.7108 28.4242 33.2546 28.487 33.8193 28.5288C34.384 28.5706 34.886 28.5497 35.4716 28.5288C35.618 28.5288 35.7017 28.6961 35.5971 28.7798Z" fill="black"/>
<path d="M43.8585 29.1351C43.1892 29.909 41.8297 29.8044 41.2022 29.0515C41.1395 28.9887 41.2022 28.8632 41.2859 28.8842C41.516 28.9051 41.7251 28.9469 41.9343 28.9678C42.5617 29.0724 43.0846 29.0515 43.7539 29.0306C43.8585 28.9887 43.9003 29.0933 43.8585 29.1351Z" fill="black"/>
<path d="M48.5228 23.6554C47.9371 25.475 46.5358 27.0018 45.6365 28.0267C45.8456 27.0437 45.6574 26.458 45.6992 25.7678C45.762 24.8267 46.0966 23.7809 46.0339 23.3626C45.992 22.9861 45.9084 22.6306 45.8247 22.2541C45.7201 21.794 45.5947 21.3548 45.4483 20.9156C42.1646 24.1156 36.5384 20.9574 36.5384 20.9574C36.5384 20.9574 35.3463 21.9404 33.2548 21.7103C31.0169 21.4803 30.4103 20.0999 30.4103 20.0999C29.8038 24.3247 25.809 22.7143 26.5411 26.9182C26.7502 28.0685 26.7502 29.177 25.7672 30.3273C25.5999 29.7417 24.7842 27.3574 22.1071 27.692C19.5764 28.0058 18.6143 33.862 23.843 35.8698C23.7803 37.8149 23.9894 40.4502 23.7803 39.76C22.3162 35.2424 19.3881 35.9535 18.0077 32.5443C17.3594 30.9129 17.4639 29.4698 17.7986 28.4031C18.1332 27.3783 18.1123 26.2698 17.7777 25.245C17.4012 24.0528 17.1084 22.2541 17.7986 20.079C18.9698 16.3561 21.4796 15.4986 22.128 15.0594C22.7764 14.6201 22.4626 10.6045 27.0012 9.34955C30.6195 8.34563 33.3384 10.458 34.1332 10.3116C34.928 10.1652 40.4914 6.5051 44.779 9.95608C48.9201 13.3025 47.3724 17.2554 47.3724 17.2554C47.3724 17.2554 49.945 19.2424 48.5228 23.6554Z" fill="black"/>
<path d="M23.4871 31.1016C23.4871 31.1016 21.8138 30.8506 21.9393 33.1931C22.0021 34.3852 22.0021 35.0336 21.9812 35.3682C21.9603 35.5983 22.1067 35.8074 22.3158 35.8911C22.5668 35.9957 22.8387 35.8911 22.9642 35.6401C23.1524 35.3055 23.3616 34.8454 23.3616 34.4689C23.3616 33.8414 24.0308 33.2767 24.0308 33.2767C24.0308 33.2767 23.4243 32.7539 23.4871 31.1016Z" fill="white"/>
<path d="M23.4242 31.1639C23.4242 31.1848 23.4451 31.2058 23.466 31.2058C23.466 31.2058 23.466 31.2058 23.4451 31.2058H23.4033C22.3993 31.2894 22.0856 32.1679 22.1274 33.0672C22.1484 33.6528 22.1902 34.2384 22.1693 34.8031C22.2111 35.1169 22.0229 35.5352 22.3366 35.7025C22.5248 35.8071 22.7758 35.7234 22.8595 35.5143C23.0477 35.1378 23.2359 34.7613 23.2359 34.343C23.3196 33.862 23.6333 33.4855 23.968 33.1927V33.36C23.5288 32.8999 23.4242 32.2724 23.3614 31.6868C23.3823 31.5404 23.3823 31.3103 23.4242 31.1639ZM23.5706 31.0175C23.6333 31.6031 23.6333 32.2097 23.8843 32.7326C23.9471 32.879 24.0516 33.0463 24.1771 33.1509C24.2608 33.2136 24.2608 33.3391 24.1771 33.4018C23.8843 33.6737 23.6333 34.0084 23.5915 34.3848C23.5915 34.845 23.4033 35.2842 23.1941 35.6816C23.0268 36.0371 22.5457 36.2254 22.1902 36.0162C21.9601 35.8907 21.7928 35.6398 21.7928 35.3679C21.7928 35.1587 21.8137 34.9914 21.8137 34.7822C21.8137 34.1966 21.7719 33.6319 21.751 33.0463C21.751 32.6698 21.7719 32.2306 21.9392 31.8541C22.1484 31.2685 22.7967 30.8711 23.4242 30.9757C23.4869 30.9757 23.5497 30.9966 23.5706 31.0175Z" fill="black"/>
<path d="M23.2162 55.8646C23.9064 52.8528 23.0071 49.4646 22.2332 46.4528C21.9195 45.2607 21.6057 44.1312 21.4593 43.1482C21.1874 41.4959 21.3757 39.9273 22.045 38.4633C22.8606 36.6437 22.7352 35.0959 22.7352 35.0332L22.3169 35.075C22.3169 35.0959 22.4423 36.6018 21.6685 38.2959C20.9783 39.8227 20.7691 41.475 21.041 43.211C21.2084 44.2149 21.5012 45.3652 21.8149 46.5574C22.5888 49.5064 23.4672 52.8528 22.7979 55.76C22.4214 57.3705 23.1535 60.0058 24.1992 62.641C24.3665 62.662 24.5129 62.6829 24.6803 62.7038C23.6136 60.0685 22.8606 57.4123 23.2162 55.8646Z" fill="black"/>
<path d="M22.002 34.4057C22.0229 34.8658 22.002 35.1795 22.002 35.3678C21.9811 35.5978 22.1275 35.807 22.3366 35.8906C22.5876 35.9952 22.8595 35.8906 22.985 35.6397C23.1732 35.305 23.3824 34.8449 23.3824 34.4684C23.3824 34.4475 23.3824 34.4057 23.3824 34.3848C22.9641 34.5521 22.4621 34.6776 22.002 34.4057Z" fill="white"/>
<path d="M22.0648 34.4896C22.0858 34.7824 22.1067 35.0543 22.1067 35.3472C22.0858 35.4726 22.1276 35.5981 22.2112 35.7027C22.4831 35.9746 22.8596 35.8073 22.9642 35.4726C23.1315 35.138 23.2779 34.7824 23.2779 34.406L23.4243 34.5106C22.9642 34.5942 22.4831 34.7197 22.0439 34.5315C22.0439 34.5315 22.0648 34.5106 22.0648 34.4896ZM21.9603 34.3014C22.0021 34.3014 22.0858 34.3223 22.1276 34.3641C22.5041 34.636 22.9851 34.5106 23.3616 34.3014C23.4243 34.2596 23.5289 34.3223 23.508 34.406C23.4871 34.887 23.2988 35.3472 23.0478 35.7655C22.8178 36.0792 22.3367 36.1001 22.0648 35.8282C21.9393 35.7027 21.8766 35.4936 21.8975 35.3262C21.8975 34.9707 21.9393 34.636 21.9603 34.3014Z" fill="black"/>
<path d="M41.7042 48.3141C42.0598 45.8461 41.7251 44.0893 41.5996 43.5664C41.5369 43.6082 41.4951 43.671 41.4323 43.7128C41.3696 43.7756 41.3068 43.8174 41.2441 43.8801C41.3696 44.5494 41.5996 46.139 41.2859 48.2514C41.1395 49.2344 41.0977 50.7821 41.0768 52.5808C41.0349 54.3167 40.4911 58.6461 39.8428 62.7455C39.9892 62.7037 40.1356 62.6618 40.282 62.6409C40.9304 58.5834 41.4532 54.3377 41.4951 52.6017C41.5369 50.803 41.5578 49.2762 41.7042 48.3141Z" fill="black"/>
</g>
<rect x="0.64" y="0.64" width="62.72" height="62.72" rx="4.48" stroke="black" stroke-width="1.28"/>
</g>
<defs>
<filter id="filter0_dddd_1567_1554" x="0" y="0" width="66.56" height="66.56" filterUnits="userSpaceOnUse" color-interpolation-filters="sRGB">
<feFlood flood-opacity="0" result="BackgroundImageFix"/>
<feColorMatrix in="SourceAlpha" type="matrix" values="0 0 0 0 0 0 0 0 0 0 0 0 0 0 0 0 0 0 127 0" result="hardAlpha"/>
<feOffset dx="2.56" dy="2.56"/>
<feComposite in2="hardAlpha" operator="out"/>
<feColorMatrix type="matrix" values="0 0 0 0 0 0 0 0 0 0 0 0 0 0 0 0 0 0 1 0"/>
<feBlend mode="normal" in2="BackgroundImageFix" result="effect1_dropShadow_1567_1554"/>
<feColorMatrix in="SourceAlpha" type="matrix" values="0 0 0 0 0 0 0 0 0 0 0 0 0 0 0 0 0 0 127 0" result="hardAlpha"/>
<feOffset dx="1.28" dy="1.28"/>
<feComposite in2="hardAlpha" operator="out"/>
<feColorMatrix type="matrix" values="0 0 0 0 0 0 0 0 0 0 0 0 0 0 0 0 0 0 1 0"/>
<feBlend mode="normal" in2="effect1_dropShadow_1567_1554" result="effect2_dropShadow_1567_1554"/>
<feColorMatrix in="SourceAlpha" type="matrix" values="0 0 0 0 0 0 0 0 0 0 0 0 0 0 0 0 0 0 127 0" result="hardAlpha"/>
<feOffset dx="1.92" dy="1.92"/>
<feComposite in2="hardAlpha" operator="out"/>
<feColorMatrix type="matrix" values="0 0 0 0 0 0 0 0 0 0 0 0 0 0 0 0 0 0 1 0"/>
<feBlend mode="normal" in2="effect2_dropShadow_1567_1554" result="effect3_dropShadow_1567_1554"/>
<feColorMatrix in="SourceAlpha" type="matrix" values="0 0 0 0 0 0 0 0 0 0 0 0 0 0 0 0 0 0 127 0" result="hardAlpha"/>
<feOffset dx="0.64" dy="0.64"/>
<feComposite in2="hardAlpha" operator="out"/>
<feColorMatrix type="matrix" values="0 0 0 0 0 0 0 0 0 0 0 0 0 0 0 0 0 0 1 0"/>
<feBlend mode="normal" in2="effect3_dropShadow_1567_1554" result="effect4_dropShadow_1567_1554"/>
<feBlend mode="normal" in="SourceGraphic" in2="effect4_dropShadow_1567_1554" result="shape"/>
</filter>
<clipPath id="clip0_1567_1554">
<rect width="64" height="64" rx="5.12" fill="white"/>
</clipPath>
</defs>
</svg>
