<svg width="40" height="40" viewBox="0 0 40 40" fill="none" xmlns="http://www.w3.org/2000/svg">
<rect x="0.5" y="0.5" width="39" height="39" rx="3.5" fill="#FFC900"/>
<g clip-path="url(#clip0_1702_1827)">
<path d="M21 29V31.5L18 29.5L15 31.5V29H14.5C13.5717 29 12.6815 28.6313 12.0251 27.9749C11.3687 27.3185 11 26.4283 11 25.5V13C11 12.2044 11.3161 11.4413 11.8787 10.8787C12.4413 10.3161 13.2044 10 14 10H28C28.2652 10 28.5196 10.1054 28.7071 10.2929C28.8946 10.4804 29 10.7348 29 11V28C29 28.2652 28.8946 28.5196 28.7071 28.7071C28.5196 28.8946 28.2652 29 28 29H21ZM15 27V25H21V27H27V24H14.5C14.1022 24 13.7206 24.158 13.4393 24.4393C13.158 24.7206 13 25.1022 13 25.5C13 25.8978 13.158 26.2794 13.4393 26.5607C13.7206 26.842 14.1022 27 14.5 27H15ZM15 13V15H17V13H15ZM15 16V18H17V16H15ZM15 19V21H17V19H15Z" fill="black"/>
</g>
<rect x="0.5" y="0.5" width="39" height="39" rx="3.5" stroke="black"/>
<defs>
<clipPath id="clip0_1702_1827">
<rect width="24" height="24" fill="white" transform="translate(8 8)"/>
</clipPath>
</defs>
</svg>
