<svg width="41" height="40" viewBox="0 0 41 40" fill="none" xmlns="http://www.w3.org/2000/svg">
<rect x="1.5" y="1" width="38" height="38" rx="3" fill="white"/>
<g clip-path="url(#clip0_1599_1616)">
<path d="M14.5 26.9999H26.5V17.1569L20.5 11.7029L14.5 17.1569V26.9999ZM27.5 28.9999H13.5C13.2348 28.9999 12.9804 28.8946 12.7929 28.707C12.6054 28.5195 12.5 28.2651 12.5 27.9999V18.9999H9.5L19.827 9.61192C20.0111 9.4444 20.2511 9.35156 20.5 9.35156C20.7489 9.35156 20.9889 9.4444 21.173 9.61192L31.5 18.9999H28.5V27.9999C28.5 28.2651 28.3946 28.5195 28.2071 28.707C28.0196 28.8946 27.7652 28.9999 27.5 28.9999ZM16 20.9999H18C18 21.663 18.2634 22.2988 18.7322 22.7677C19.2011 23.2365 19.837 23.4999 20.5 23.4999C21.163 23.4999 21.7989 23.2365 22.2678 22.7677C22.7366 22.2988 23 21.663 23 20.9999H25C25 22.1934 24.5259 23.338 23.682 24.1819C22.8381 25.0258 21.6935 25.4999 20.5 25.4999C19.3065 25.4999 18.1619 25.0258 17.318 24.1819C16.4741 23.338 16 22.1934 16 20.9999Z" fill="#09121F"/>
</g>
<rect x="1.5" y="1" width="38" height="38" rx="3" stroke="black" stroke-width="2"/>
<defs>
<clipPath id="clip0_1599_1616">
<rect width="24" height="24" fill="white" transform="translate(8.5 8)"/>
</clipPath>
</defs>
</svg>
