<svg width="41" height="40" viewBox="0 0 41 40" fill="none" xmlns="http://www.w3.org/2000/svg">
<rect x="1.83331" y="1" width="38" height="38" rx="3" fill="white"/>
<g clip-path="url(#clip0_1599_1624)">
<path d="M30.8333 28C30.8333 28.2652 30.728 28.5196 30.5404 28.7071C30.3529 28.8946 30.0985 29 29.8333 29H11.8333C11.5681 29 11.3137 28.8946 11.1262 28.7071C10.9387 28.5196 10.8333 28.2652 10.8333 28V12C10.8333 11.7348 10.9387 11.4804 11.1262 11.2929C11.3137 11.1054 11.5681 11 11.8333 11H29.8333C30.0985 11 30.3529 11.1054 30.5404 11.2929C30.728 11.4804 30.8333 11.7348 30.8333 12V28ZM19.8333 23H12.8333V27H19.8333V23ZM28.8333 19H21.8333V27H28.8333V19ZM19.8333 13H12.8333V21H19.8333V13ZM28.8333 13H21.8333V17H28.8333V13Z" fill="#09121F"/>
</g>
<rect x="1.83331" y="1" width="38" height="38" rx="3" stroke="black" stroke-width="2"/>
<defs>
<clipPath id="clip0_1599_1624">
<rect width="24" height="24" fill="white" transform="translate(8.83331 8)"/>
</clipPath>
</defs>
</svg>
