<svg width="41" height="40" viewBox="0 0 41 40" fill="none" xmlns="http://www.w3.org/2000/svg">
<rect x="1.16669" y="1" width="38" height="38" rx="3" fill="white"/>
<g clip-path="url(#clip0_1599_1620)">
<path d="M29.1667 26H14.1667C13.9015 26 13.6471 26.1054 13.4596 26.2929C13.272 26.4804 13.1667 26.7348 13.1667 27C13.1667 27.2652 13.272 27.5196 13.4596 27.7071C13.6471 27.8946 13.9015 28 14.1667 28H29.1667V30H14.1667C13.371 30 12.608 29.6839 12.0454 29.1213C11.4828 28.5587 11.1667 27.7956 11.1667 27V12C11.1667 11.4696 11.3774 10.9609 11.7525 10.5858C12.1275 10.2107 12.6363 10 13.1667 10H29.1667V26ZM13.1667 24.05C13.3287 24.017 13.4957 24 13.6667 24H27.1667V12H13.1667V24.05ZM24.1667 17H16.1667V15H24.1667V17Z" fill="#09121F"/>
</g>
<rect x="1.16669" y="1" width="38" height="38" rx="3" stroke="black" stroke-width="2"/>
<defs>
<clipPath id="clip0_1599_1620">
<rect width="24" height="24" fill="white" transform="translate(8.16669 8)"/>
</clipPath>
</defs>
</svg>
